# xmcd
#
# Track frame offsets: 
#        150
#        14886
#        26218
#        39242
#        54541
#        68389
#        80257
#        95313
#        108146
#        123191
#        137281
#        154953
#        171388
#        186674
#        198761
#        211229
#        227394
#        245140
#        259202
#
# Disc length: 3638 seconds
#
# Revision: 0
# Processed by: cddbd v1.5.2PL0 Copyright (c) Steve Scherf et al.
# Submitted via: ExactAudioCopy v1.1
#
DISCID=fd0e3413
DTITLE=Various Artist - MNM Big Hits 2018 Vol. 3 - CD 2
DYEAR=2018
DGENRE=Top 40
TTITLE0=David Guetta and Sia - Flames
TTITLE1=Lost Frequencies Feat. James Blunt - Melody
TTITLE2=Nicky Jam and J Balvin - X
TTITLE3=Alvaro Soler - La Cintura
TTITLE4=Niels Destadsbader - Verover Mij (Live)
TTITLE5=Dennis Lloyd - Nevermind
TTITLE6=Christine And The Queens Feat. Dâm-Funk - Damn, Dis-Moi
TTITLE7=Kraantje Pappie - Lil Craney
TTITLE8=Khalid and Normani - Love Lies
TTITLE9=Like Mike - Rewind
TTITLE10=Alice Merton - No Roots
TTITLE11=Sheppard - Coming Home
TTITLE12=5 Seconds Of Summer - Youngblood
TTITLE13=MATTN and HIDDN - Late
TTITLE14=Sara Gold Feat. Jasmin - Gold In Your Eyes
TTITLE15=Au/Ra and Camelphat - Panic Room
TTITLE16=Oscar And The Wolf - Fever
TTITLE17=Zayn - Let Me
TTITLE18=Tom Walker - Leave A Light On
EXTD=
EXTT0=
EXTT1=
EXTT2=
EXTT3=
EXTT4=
EXTT5=
EXTT6=
EXTT7=
EXTT8=
EXTT9=
EXTT10=
EXTT11=
EXTT12=
EXTT13=
EXTT14=
EXTT15=
EXTT16=
EXTT17=
EXTT18=
PLAYORDER=
